<mxfile host="65bd71144e">
    <diagram id="jvXx_PYlSMpvEXPxi-el" name="Page-1">
        <mxGraphModel dx="650" dy="607" grid="1" gridSize="10" guides="1" tooltips="1" connect="1" arrows="1" fold="1" page="1" pageScale="1" pageWidth="850" pageHeight="1100" math="0" shadow="0">
            <root>
                <mxCell id="0"/>
                <mxCell id="1" parent="0"/>
                <mxCell id="AbuECpCnEaWTRW6RY39n-71" value="" style="group" parent="1" connectable="0" vertex="1">
                    <mxGeometry x="40" y="30" width="600" height="510" as="geometry"/>
                </mxCell>
                <mxCell id="2" value="Hráč 1" style="shape=umlActor;verticalLabelPosition=bottom;verticalAlign=top;html=1;outlineConnect=0;" parent="AbuECpCnEaWTRW6RY39n-71" vertex="1">
                    <mxGeometry y="207.77777777777777" width="100" height="160.55555555555557" as="geometry"/>
                </mxCell>
                <mxCell id="3" value="" style="whiteSpace=wrap;html=1;" parent="AbuECpCnEaWTRW6RY39n-71" vertex="1">
                    <mxGeometry x="140" y="18.88888888888889" width="340" height="491.1111111111111" as="geometry"/>
                </mxCell>
                <mxCell id="4" value="Hráč 2" style="shape=umlActor;verticalLabelPosition=bottom;verticalAlign=top;html=1;outlineConnect=0;" parent="AbuECpCnEaWTRW6RY39n-71" vertex="1">
                    <mxGeometry x="500" y="207.77777777777777" width="100" height="160.55555555555557" as="geometry"/>
                </mxCell>
                <mxCell id="11" value="UC1 pohybuje svými kameny po hrací ploše pouze šikmo do předu pokud nemá dámu" style="ellipse;whiteSpace=wrap;html=1;fontSize=10;" parent="AbuECpCnEaWTRW6RY39n-71" vertex="1">
                    <mxGeometry x="240" y="18.88888888888889" width="130" height="94.44444444444444" as="geometry"/>
                </mxCell>
                <mxCell id="13" value="UC2 bere protivníkovy kameny tím že je přeskočí" style="ellipse;whiteSpace=wrap;html=1;fontSize=10;" parent="AbuECpCnEaWTRW6RY39n-71" vertex="1">
                    <mxGeometry x="252.5" y="113.33333333333333" width="100" height="94.44444444444444" as="geometry"/>
                </mxCell>
                <mxCell id="LGlfDNtQkoaKr4lK12nt-13" value="" style="endArrow=classic;html=1;entryX=0;entryY=0.5;entryDx=0;entryDy=0;exitX=1;exitY=0.3333333333333333;exitDx=0;exitDy=0;exitPerimeter=0;" parent="AbuECpCnEaWTRW6RY39n-71" source="2" target="11" edge="1">
                    <mxGeometry width="50" height="50" relative="1" as="geometry">
                        <mxPoint x="180" y="113.33333333333333" as="sourcePoint"/>
                        <mxPoint x="230" y="66.11111111111111" as="targetPoint"/>
                    </mxGeometry>
                </mxCell>
                <mxCell id="LGlfDNtQkoaKr4lK12nt-14" value="" style="endArrow=classic;html=1;entryX=1;entryY=0.5;entryDx=0;entryDy=0;exitX=0;exitY=0.3333333333333333;exitDx=0;exitDy=0;exitPerimeter=0;" parent="AbuECpCnEaWTRW6RY39n-71" source="4" target="11" edge="1">
                    <mxGeometry width="50" height="50" relative="1" as="geometry">
                        <mxPoint x="330" y="162.1296296296296" as="sourcePoint"/>
                        <mxPoint x="445.000000000001" y="103.88888888888889" as="targetPoint"/>
                    </mxGeometry>
                </mxCell>
                <mxCell id="LGlfDNtQkoaKr4lK12nt-15" value="" style="endArrow=classic;html=1;entryX=0;entryY=0.5;entryDx=0;entryDy=0;exitX=1;exitY=0.3333333333333333;exitDx=0;exitDy=0;exitPerimeter=0;" parent="AbuECpCnEaWTRW6RY39n-71" source="2" target="13" edge="1">
                    <mxGeometry width="50" height="50" relative="1" as="geometry">
                        <mxPoint x="140" y="218.79629629629625" as="sourcePoint"/>
                        <mxPoint x="255.00000000000102" y="160.55555555555557" as="targetPoint"/>
                    </mxGeometry>
                </mxCell>
                <mxCell id="LGlfDNtQkoaKr4lK12nt-16" value="" style="endArrow=classic;html=1;entryX=1;entryY=0.5;entryDx=0;entryDy=0;exitX=0;exitY=0.3333333333333333;exitDx=0;exitDy=0;exitPerimeter=0;" parent="AbuECpCnEaWTRW6RY39n-71" source="4" target="13" edge="1">
                    <mxGeometry width="50" height="50" relative="1" as="geometry">
                        <mxPoint x="160" y="147.9629629629629" as="sourcePoint"/>
                        <mxPoint x="275.000000000001" y="89.72222222222221" as="targetPoint"/>
                    </mxGeometry>
                </mxCell>
                <mxCell id="AbuECpCnEaWTRW6RY39n-13" value="UC3 &lt;br&gt;přemění kámen na dámu při doskákání nakonec protější strany" style="ellipse;whiteSpace=wrap;html=1;fontSize=10;" parent="AbuECpCnEaWTRW6RY39n-71" vertex="1">
                    <mxGeometry x="252.5" y="207.77777777777777" width="100" height="94.44444444444444" as="geometry"/>
                </mxCell>
                <mxCell id="LGlfDNtQkoaKr4lK12nt-17" value="DÁMA" style="rounded=1;whiteSpace=wrap;html=1;" parent="AbuECpCnEaWTRW6RY39n-71" vertex="1">
                    <mxGeometry x="237.5" width="145" height="18.88888888888889" as="geometry"/>
                </mxCell>
                <mxCell id="AbuECpCnEaWTRW6RY39n-15" value="" style="endArrow=classic;html=1;exitX=1;exitY=0.3333333333333333;exitDx=0;exitDy=0;exitPerimeter=0;entryX=0;entryY=0.5;entryDx=0;entryDy=0;" parent="AbuECpCnEaWTRW6RY39n-71" source="2" target="AbuECpCnEaWTRW6RY39n-13" edge="1">
                    <mxGeometry width="50" height="50" relative="1" as="geometry">
                        <mxPoint x="270" y="292.77777777777777" as="sourcePoint"/>
                        <mxPoint x="320" y="245.55555555555554" as="targetPoint"/>
                    </mxGeometry>
                </mxCell>
                <mxCell id="AbuECpCnEaWTRW6RY39n-17" value="" style="endArrow=classic;html=1;entryX=1;entryY=0.5;entryDx=0;entryDy=0;exitX=0;exitY=0.3333333333333333;exitDx=0;exitDy=0;exitPerimeter=0;" parent="AbuECpCnEaWTRW6RY39n-71" source="4" target="AbuECpCnEaWTRW6RY39n-13" edge="1">
                    <mxGeometry width="50" height="50" relative="1" as="geometry">
                        <mxPoint x="480" y="151.11111111111111" as="sourcePoint"/>
                        <mxPoint x="320" y="245.55555555555554" as="targetPoint"/>
                    </mxGeometry>
                </mxCell>
                <mxCell id="AbuECpCnEaWTRW6RY39n-64" value="UC4&lt;br&gt;při prohře zapálí stůl" style="ellipse;whiteSpace=wrap;html=1;fontSize=10;" parent="AbuECpCnEaWTRW6RY39n-71" vertex="1">
                    <mxGeometry x="252.5" y="302.22222222222223" width="100" height="94.44444444444444" as="geometry"/>
                </mxCell>
                <mxCell id="AbuECpCnEaWTRW6RY39n-70" value="" style="endArrow=classic;html=1;entryX=0;entryY=0.5;entryDx=0;entryDy=0;exitX=1;exitY=0.3333333333333333;exitDx=0;exitDy=0;exitPerimeter=0;" parent="AbuECpCnEaWTRW6RY39n-71" source="2" target="AbuECpCnEaWTRW6RY39n-64" edge="1">
                    <mxGeometry width="50" height="50" relative="1" as="geometry">
                        <mxPoint x="110" y="264.44444444444446" as="sourcePoint"/>
                        <mxPoint x="320" y="368.3333333333333" as="targetPoint"/>
                    </mxGeometry>
                </mxCell>
                <mxCell id="AbuECpCnEaWTRW6RY39n-73" value="" style="endArrow=classic;html=1;exitX=0;exitY=0.3333333333333333;exitDx=0;exitDy=0;exitPerimeter=0;" parent="AbuECpCnEaWTRW6RY39n-71" source="4" target="AbuECpCnEaWTRW6RY39n-64" edge="1">
                    <mxGeometry width="50" height="50" relative="1" as="geometry">
                        <mxPoint x="430" y="358.88888888888886" as="sourcePoint"/>
                        <mxPoint x="480" y="311.66666666666663" as="targetPoint"/>
                    </mxGeometry>
                </mxCell>
            </root>
        </mxGraphModel>
    </diagram>
</mxfile>